<?xml version="1.0" encoding="UTF-8" standalone="no"?>
<svg
   version="1.1"
   id="Layer_1"
   x="0px"
   y="0px"
   viewBox="0 0 512.00003 512"
   xml:space="preserve"
   sodipodi:docname="simserver.svg"
   width="512"
   height="512"
   inkscape:version="1.2.1 (9c6d41e410, 2022-07-14)"
   xmlns:inkscape="http://www.inkscape.org/namespaces/inkscape"
   xmlns:sodipodi="http://sodipodi.sourceforge.net/DTD/sodipodi-0.dtd"
   xmlns="http://www.w3.org/2000/svg"
   xmlns:svg="http://www.w3.org/2000/svg"><defs
     id="defs9" /><sodipodi:namedview
     id="namedview7"
     pagecolor="#ffffff"
     bordercolor="#666666"
     borderopacity="1.0"
     inkscape:showpageshadow="2"
     inkscape:pageopacity="0.0"
     inkscape:pagecheckerboard="0"
     inkscape:deskcolor="#d1d1d1"
     showgrid="false"
     inkscape:zoom="0.99873247"
     inkscape:cx="145.18403"
     inkscape:cy="230.79254"
     inkscape:window-width="1920"
     inkscape:window-height="1080"
     inkscape:window-x="0"
     inkscape:window-y="0"
     inkscape:window-maximized="1"
     inkscape:current-layer="Layer_1" /><g
     style="fill:#808080"
     id="g271"
     transform="matrix(23.323991,0,0,23.323991,-14.260464,-10.681504)"
     inkscape:label="sim"><path
       d="M 0,0 H 24 V 24 H 0 Z"
       fill="none"
       id="path259"
       style="display:none;fill:#808080" /><path
       d="m 19.876321,3.1343211 c 0,-1.1411763 -0.92331,-2.0748661 -2.06449,-2.0748661 H 9.5123701 L 3.2877704,7.2840532 V 19.733249 c 0,1.141176 0.93369,2.074866 2.07487,2.074866 H 17.822211 c 1.14117,0 2.06448,-0.93369 2.06448,-2.074866 z M 8.4749301,18.695816 H 6.4000704 V 16.62095 h 2.0748597 z m 8.2994709,0 h -2.07487 V 16.62095 h 2.07487 z M 8.4749301,14.546084 H 6.4000704 v -4.149732 h 2.0748597 z m 4.1497409,4.149732 h -2.07487 v -4.149732 h 2.07487 z m 0,-6.224598 h -2.07487 v -2.074866 h 2.07487 z m 4.14973,2.074866 h -2.07487 v -4.149732 h 2.07487 z"
       id="path261"
       style="display:inline;fill:#808080;stroke-width:1.03743" /></g><g
     style="display:none;fill:#000000"
     id="g243"
     transform="matrix(3.7282512,0,0,3.7282512,244.23389,236.45409)"
     inkscape:label="http"><path
       d="m 4.5,11 h -2 V 9 H 1 v 6 h 1.5 v -2.5 h 2 V 15 H 6 V 9 H 4.5 Z M 7,10.5 H 8.5 V 15 H 10 v -4.5 h 1.5 V 9 H 7 Z m 5.5,0 H 14 V 15 h 1.5 V 10.5 H 17 V 9 H 12.5 Z M 21.5,9 H 18 v 6 h 1.5 v -2 h 2 c 0.8,0 1.5,-0.7 1.5,-1.5 v -1 C 23,9.7 22.3,9 21.5,9 Z m 0,2.5 h -2 v -1 h 2 z"
       id="path231"
       style="display:inline" /><path
       d="M 24,24 H 0 V 0 h 24 z"
       fill="none"
       id="path233"
       style="display:none" /></g><g
     style="fill:#000000"
     id="g257"
     transform="matrix(13.985664,0,0,13.985664,121.12894,-298.22281)"
     inkscape:label="ethernet"><path
       d="M 0,0 H 24 V 24 H 0 Z"
       fill="none"
       id="path245"
       style="display:none" /><path
       d="m 7.1639595,26.332792 -1.2739358,-1.058855 -4.4753198,5.393546 4.4753198,5.393546 1.2739358,-1.058856 -3.5984549,-4.33469 z m -0.6369679,5.161922 h 1.654462 V 29.840252 H 6.5269916 Z M 14.799302,29.840252 H 13.14484 v 1.654462 h 1.654462 z M 9.8359156,31.494714 H 11.490377 V 29.840252 H 9.8359156 Z m 5.6003544,-6.220777 -1.273936,1.058855 3.598455,4.334691 -3.598455,4.33469 1.273936,1.058856 4.475319,-5.393546 z"
       id="path247"
       style="display:inline;stroke-width:0.827231" /></g></svg>
