<?xml version="1.0" encoding="UTF-8" standalone="no"?>
<svg
   version="1.1"
   id="Layer_1"
   x="0px"
   y="0px"
   viewBox="0 0 512.00003 512"
   xml:space="preserve"
   sodipodi:docname="simserver.svg"
   width="512"
   height="512"
   inkscape:version="1.2.1 (9c6d41e410, 2022-07-14)"
   xmlns:inkscape="http://www.inkscape.org/namespaces/inkscape"
   xmlns:sodipodi="http://sodipodi.sourceforge.net/DTD/sodipodi-0.dtd"
   xmlns="http://www.w3.org/2000/svg"
   xmlns:svg="http://www.w3.org/2000/svg"><defs
     id="defs9" /><sodipodi:namedview
     id="namedview7"
     pagecolor="#ffffff"
     bordercolor="#666666"
     borderopacity="1.0"
     inkscape:showpageshadow="2"
     inkscape:pageopacity="0.0"
     inkscape:pagecheckerboard="0"
     inkscape:deskcolor="#d1d1d1"
     showgrid="false"
     inkscape:zoom="1.4305088"
     inkscape:cx="234.88147"
     inkscape:cy="260.74639"
     inkscape:window-width="956"
     inkscape:window-height="1053"
     inkscape:window-x="0"
     inkscape:window-y="0"
     inkscape:window-maximized="1"
     inkscape:current-layer="Layer_1" /><g
     id="g4"
     transform="matrix(3.4817811,0,0,3.7697084,101.94465,24.104141)"
     style="fill:#808080"><path
       d="m 27.3,56.77 h 36.47 c 2.41,0 4.61,0.99 6.2,2.58 1.59,1.59 2.58,3.78 2.58,6.2 V 99 c 0,2.41 -0.99,4.61 -2.58,6.2 -1.59,1.59 -3.78,2.58 -6.2,2.58 H 27.3 c -2.41,0 -4.61,-0.99 -6.2,-2.58 -1.59,-1.59 -2.58,-3.78 -2.58,-6.2 V 65.54 c 0,-2.42 0.99,-4.61 2.58,-6.2 1.59,-1.58 3.79,-2.57 6.2,-2.57 z M 8.56,0.02 h 43.08 c 1.64,0 1.8,0 1.96,0 2.25,-0.03 3.37,-0.04 4.7,0.51 1.34,0.56 2.13,1.37 3.72,3.01 0.39,0.41 0.85,0.87 1.35,1.38 4.14,4.16 7.94,8.09 11.75,12.01 3.7,3.82 7.4,7.64 11.36,11.62 0.7,0.7 1.31,1.29 1.82,1.78 1.48,1.42 2.25,2.16 2.82,3.46 0.61,1.4 0.6,2.62 0.58,5.19 0,0.26 0,-0.64 0,1.66 v 73.69 c 0,2.36 -0.96,4.5 -2.51,6.05 -1.55,1.55 -3.69,2.51 -6.05,2.51 H 8.56 c -2.36,0 -4.5,-0.96 -6.05,-2.51 C 0.96,118.82 0,116.67 0,114.32 V 8.58 C 0,6.22 0.96,4.08 2.51,2.53 4.06,0.98 6.21,0.02 8.56,0.02 Z M 51.64,5.9 H 8.56 C 7.82,5.9 7.15,6.2 6.67,6.69 6.18,7.17 5.88,7.85 5.88,8.58 v 105.74 c 0,0.74 0.3,1.41 0.79,1.89 0.49,0.49 1.16,0.79 1.89,0.79 h 74.57 c 0.73,0 1.41,-0.3 1.89,-0.79 0.49,-0.49 0.79,-1.16 0.79,-1.89 v -73.7 c 0,-1.06 0.01,-0.43 0.02,-1.68 0.01,-1.73 0.02,-2.55 -0.1,-2.82 C 85.64,35.9 85.15,35.44 84.22,34.55 83.71,34.06 83.09,33.46 82.31,32.68 78.3,28.64 74.6,24.83 70.91,21.01 67.1,17.08 63.3,13.15 59.21,9.04 58.65,8.48 58.2,8.02 57.82,7.62 56.8,6.57 56.29,6.04 56.05,5.95 55.81,5.85 55.1,5.86 53.67,5.88 52.69,5.88 51.74,5.9 51.64,5.9 Z m 3.81,55.28 v 0.01 12.1 h 12.68 v -7.75 c 0,-1.2 -0.49,-2.29 -1.28,-3.08 -0.79,-0.79 -1.88,-1.28 -3.08,-1.28 z m 12.69,16.7 H 55.45 v 8.27 h 12.68 v -8.27 z m 0,12.85 H 55.45 v 12.63 h 8.32 c 1.2,0 2.29,-0.49 3.08,-1.28 0.79,-0.79 1.28,-1.88 1.28,-3.08 v -8.27 z m -17.1,12.63 V 89.09 c -0.06,-0.21 -0.09,-0.42 -0.09,-0.65 0,-0.23 0.03,-0.44 0.09,-0.65 V 76.24 c -0.06,-0.21 -0.09,-0.42 -0.09,-0.65 0,-0.23 0.03,-0.44 0.09,-0.65 V 61.2 61.19 H 27.3 c -1.2,0 -2.29,0.49 -3.08,1.28 -0.79,0.79 -1.28,1.88 -1.28,3.08 v 7.77 h 14.39 c 1.22,0 2.21,0.99 2.21,2.21 V 87.6 c 0.04,0.17 0.07,0.36 0.07,0.55 0,0.19 -0.02,0.37 -0.07,0.55 v 14.67 h 11.5 z M 22.94,77.72 v 8.13 h 12.18 v -8.13 z m 0,12.72 V 99 c 0,1.2 0.49,2.29 1.28,3.08 0.79,0.79 1.88,1.28 3.08,1.28 h 7.82 V 90.44 Z"
       id="path2"
       style="fill:#808080" /></g><g
     transform="matrix(0.02108,0,0,-0.02108,254.04087,178.75359)"
     fill="#000000"
     stroke="none"
     id="g119"><path
       d="M 2910,6080 V 4840 h 585 585 V 4515 4190 H 2125 170 v -165 -165 h 850 850 l -2,-347 -3,-348 -627,-3 -628,-2 V 1920 680 l 1418,2 1417,3 3,1238 2,1237 h -565 -565 v 350 350 H 4335 6350 V 3530 3200 H 5710 5070 V 1955 710 h 1420 1420 l -2,1243 -3,1242 -552,3 -553,2 v 330 330 h 515 515 v 165 165 H 6180 4530 l 2,323 3,322 608,3 607,2 -2,1238 -3,1237 -1417,3 -1418,2 z m 2390,-5 v -795 h -975 -975 v 795 795 h 975 975 z M 7460,1955 v -795 h -975 -975 v 795 795 h 975 975 z m -4460,-30 v -795 h -975 -975 v 795 795 h 975 975 z"
       id="path117" /></g></svg>
